<svg width="36" height="28" viewBox="0 0 36 28" style="background-color: #E6E20F"  xmlns="http://www.w3.org/2000/svg">

    <path d="M5.8125 28L8 20.5586C6.32031 20.5846 4.83594 20.6237 3.54688 20.6758C2.27083 20.7279 1.44401 20.7799 1.06641 20.832C1.02734 20.4935 1.0013 20.194 0.988281 19.9336C0.97526 19.6732 0.96875 19.3737 0.96875 19.0352C0.96875 18.7096 0.97526 18.3841 0.988281 18.0586C1.0013 17.7201 1.02734 17.3815 1.06641 17.043C1.27474 17.082 1.63281 17.1211 2.14062 17.1602C2.66146 17.1992 3.27995 17.2318 3.99609 17.2578C4.69922 17.2839 5.47396 17.3099 6.32031 17.3359C7.17969 17.349 8.05208 17.362 8.9375 17.375L10.8711 10.8125C9.13932 10.8646 7.60938 10.9102 6.28125 10.9492C4.95312 10.9883 4.04818 11.0404 3.56641 11.1055C3.52734 10.7669 3.5013 10.4674 3.48828 10.207C3.47526 9.94661 3.46875 9.64714 3.46875 9.30859C3.46875 8.98307 3.47526 8.65755 3.48828 8.33203C3.5013 7.99349 3.52734 7.65495 3.56641 7.31641C3.77474 7.36849 4.14583 7.41406 4.67969 7.45312C5.22656 7.47917 5.8776 7.50521 6.63281 7.53125C7.38802 7.57031 8.20833 7.59635 9.09375 7.60938C9.99219 7.6224 10.8971 7.63542 11.8086 7.64844L13.9766 0.34375H17.6875L15.5391 7.70703H21.0078L23.625 7.6875L25.793 0.34375H29.5039L27.375 7.60938C28.2344 7.59635 29.0742 7.58333 29.8945 7.57031C30.7148 7.54427 31.4701 7.51823 32.1602 7.49219C32.8503 7.46615 33.4492 7.4401 33.957 7.41406C34.4779 7.38802 34.8555 7.35547 35.0898 7.31641C35.1289 7.57682 35.1549 7.94141 35.168 8.41016C35.181 8.86589 35.1875 9.16536 35.1875 9.30859C35.1875 9.56901 35.1745 9.875 35.1484 10.2266C35.1354 10.5651 35.1159 10.8581 35.0898 11.1055C34.8424 11.0664 34.4258 11.0339 33.8398 11.0078C33.2669 10.9818 32.5898 10.9492 31.8086 10.9102C31.0143 10.8841 30.1549 10.8646 29.2305 10.8516C28.306 10.8255 27.375 10.806 26.4375 10.793L24.5234 17.3555C25.4089 17.3424 26.2812 17.3294 27.1406 17.3164C28.013 17.2904 28.8073 17.2578 29.5234 17.2188C30.2526 17.1927 30.8841 17.1667 31.418 17.1406C31.9518 17.1146 32.3424 17.082 32.5898 17.043C32.6289 17.3034 32.6549 17.668 32.668 18.1367C32.681 18.5924 32.6875 18.8919 32.6875 19.0352C32.6875 19.2956 32.6745 19.6016 32.6484 19.9531C32.6354 20.2917 32.6159 20.5846 32.5898 20.832C32.3294 20.793 31.8932 20.7604 31.2812 20.7344C30.6823 20.7083 29.9727 20.6758 29.1523 20.6367C28.332 20.6107 27.4401 20.5911 26.4766 20.5781C25.513 20.5521 24.5495 20.5326 23.5859 20.5195L21.3984 28H17.6289L19.8555 20.4609L17.9414 20.4414H16.7891C16.1901 20.4414 15.526 20.4479 14.7969 20.4609C14.0807 20.474 13.0781 20.4805 11.7891 20.4805L9.58203 28H5.8125ZM15.2656 17.4336H18.3516L20.7539 17.4141L22.7266 10.7539L19.2891 10.7148L14.6406 10.7539L12.6875 17.4141L15.2656 17.4336Z" fill="#4E1958"/>
</svg>
